<?xml version="1.0" encoding="utf-8"?>
<!-- Generator: Adobe Illustrator 16.0.0, SVG Export Plug-In . SVG Version: 6.00 Build 0)  -->
<!DOCTYPE svg PUBLIC "-//W3C//DTD SVG 1.1//EN" "http://www.w3.org/Graphics/SVG/1.1/DTD/svg11.dtd">
<svg version="1.1" id="Layer_1" xmlns="http://www.w3.org/2000/svg" xmlns:xlink="http://www.w3.org/1999/xlink" x="0px" y="0px"
	 width="864px" height="864px" viewBox="0 0 864 864" enable-background="new 0 0 864 864" xml:space="preserve">
<path fill="#010101" d="M736.691,252.307c-16.375,55.771-46.777,100.369-100.432,126.607c-24.594,12.029-48.73,25.051-73.697,36.236
	c-11.746,5.258-24.83,7.908-37.564,10.428c-6.645,1.305-13.863-0.229-21.398-0.502c-0.596,4.727-1.773,9.469,6.166,12.832
	c87.086,36.848,174.502,34.496,262.34,3.201c2.506-0.891,5.057-1.689,7.832-1.9c-29.863,24.51-62.934,42.104-101.701,47.4
	c-22.307,3.047-44.334,1.252-66.336-3.395c-10.287-2.17-21.012-2.188-31.5-3.457c-28.078-3.402-55.875-7.836-80.543-23.742
	c-0.705,1.326-1.23,2.215-1.652,3.162c-0.539,1.213-0.986,2.479-1.73,4.367c24.053,12.744,42.186,32.045,59.104,52.727
	c14.553,17.791,30.381,34.639,43.783,53.242c29.406,40.867,35.629,87.406,29.48,136.451c-2.602-9.855-5.07-19.754-7.828-29.568
	c-18.549-66.096-51.865-123.23-103.342-169.166c-9.102-8.131-19.393-14.914-28.664-22.871c-6.182-5.291-11.477-6.543-17.146,0.717
	c21.111,30.15,23.133,65.438,25.467,100.75c1.102,16.789,4.246,33.469,4.818,50.256c1.594,46.643-15.355,87.014-43.682,123.205
	c-1.35,1.707-2.742,3.383-4.09,5.084c-1.305,1.627-2.592,3.273-4.963,4.754c36.611-91.275,42.75-182.887,4.99-276.133
	c-3.787,1.199-7.217,2.268-9.824,3.088c6.184,14.592,12.295,28.389,17.898,42.4c9.787,24.5,4.33,44.877-15.143,63.137
	c-35.148,32.955-75.943,50.49-124.285,50.266c-21.949-0.1-38.1-10.406-50.838-27.479c-25.375-34.002-31.016-71.674-20.393-112.041
	c3.697-14.074,8.342-28.07,14.131-41.418c8.375-19.289,26.293-26.133,45.199-29.344c13.201-2.24,26.842-1.818,40.475-2.596
	c-0.559-3.912-1.293-8.965-2.1-14.557c-99.344,1.355-181.068,42.242-250.285,111.652c-0.656-0.666-1.316-1.34-1.977-2.008
	c7.957-12.373,15.248-25.242,23.986-37.037c28.723-38.746,67.014-62.268,114.402-72.041c16.65-3.434,32.418-10.994,48.883-15.596
	c21.545-6.033,43.465-9.805,65.855-4.373c4.881-7.555,2.832-11.637-4.582-16.18c-76.51-46.922-159.18-59.18-246.766-44.979
	c-4.23,0.684-8.562,0.707-12.846,1.037c0.301-0.451,0.604-0.906,0.904-1.355c3.432-1.566,6.902-3.074,10.291-4.719
	c38.836-18.92,79.512-28.938,122.428-19.756c25.822,5.525,50.936,14.502,76.164,22.568c13.381,4.279,26.715,9.109,39.336,15.217
	c9.617,4.645,18.072,11.688,27.523,17.986c1.912-3.406,3.037-5.396,4.209-7.492c-19.242-13.26-32.203-31.238-43.662-50.363
	c-8.215-13.709-14.795-28.467-23.639-41.73c-12.463-18.697-22.842-38.178-28.621-59.926c-10.039-37.799-6.547-75.096,4.561-112.1
	c0.881,2.643,1.133,5.291,1.273,7.938c4.789,90.328,34.564,170.137,98.764,235.598c5.633,5.73,10.441,10.141,18.062,3.172
	c-10.408-16.615-12.852-35.568-12.232-54.65c0.904-27.615,3.502-55.168,5.146-82.758c3.551-59.602,33.012-104.801,78.137-141.389
	c0.455,0.309,0.91,0.607,1.359,0.912c-55.346,84.334-76.482,175.346-54.689,275.41c4.357-0.102,23.602,1.852,24.479,1.893
	c0.268-1.783,0.5-3.574,0.824-5.35c1.41-7.645,6.646-11.072,13.799-11.344c7.223-0.268,9.611,5.479,10.826,11.131
	c0.697,3.262-0.498,6.908-0.582,10.373c-0.043,1.711-0.141,4.217,0.863,5.02c3.584,2.871,7.375,5.904,11.609,7.316
	c1.812,0.609,4.789-3.596,7.447-3.943c5.689-3.412,11.771-4.223,16.871,0.086c2.354,0.764,4.719,7.789,3.787,11.023
	c-1.463,5.078-5.719,9.354-9.506,15.049c2.43-1.197,7.271,15.986,8.283,18.941c93.756-13.633,178.127-70.463,235.154-156.307
	C735.787,251.711,736.234,252.006,736.691,252.307z"/>
</svg>
