<svg id="Ebene_1" data-name="Ebene 1" xmlns="http://www.w3.org/2000/svg" viewBox="0 0 96.02 62.04"><defs><style>.cls-1{fill:#313130;}.cls-2{fill:#5cb130;}</style></defs><title>approved</title><path class="cls-1" d="M734,387l-20.83,0a22.21,22.21,0,0,1-3.46-.15,1.9,1.9,0,0,1,0-3.75,33.36,33.36,0,0,1,3.46-.14L734,383Z" transform="translate(-637.98 -352.98)"/><path class="cls-1" d="M669.25,353A31,31,0,1,1,638,383.87,31.08,31.08,0,0,1,669.25,353ZM696,384.15A27,27,0,1,0,668.84,411,27.05,27.05,0,0,0,696,384.15Z" transform="translate(-637.98 -352.98)"/><path class="cls-2" d="M661.7,399.5c-3.77-3.77-7.3-7.27-10.8-10.8-.93-.93-1.3-2-.22-3s2.11-.66,3,.25c2.72,2.65,5.42,5.32,8.41,8.25,6.78-6.83,13.33-13.43,19.9-20a34.06,34.06,0,0,1,2.9-2.74,1.68,1.68,0,0,1,2.28.14,1.81,1.81,0,0,1,.31,2.65,13.27,13.27,0,0,1-1.33,1.48Q675,386.8,663.9,397.92A22.89,22.89,0,0,1,661.7,399.5Z" transform="translate(-637.98 -352.98)"/></svg>