<?xml version="1.0" standalone="no"?>
<!DOCTYPE svg PUBLIC "-//W3C//DTD SVG 20010904//EN"
 "http://www.w3.org/TR/2001/REC-SVG-20010904/DTD/svg10.dtd">
<svg version="1.0" xmlns="http://www.w3.org/2000/svg"
 width="96.000000pt" height="96.000000pt" viewBox="0 0 96.000000 96.000000"
 preserveAspectRatio="xMidYMid meet">
<metadata>
Created by potrace 1.15, written by Peter Selinger 2001-2017
</metadata>
<g transform="translate(0.000000,96.000000) scale(0.100000,-0.100000)"
fill="#000000" stroke="none">
<path d="M323 896 c-111 -42 -203 -129 -255 -241 -20 -44 -23 -66 -23 -175 0
-114 2 -130 26 -180 55 -115 151 -202 265 -240 92 -31 243 -25 324 12 114 53
202 150 240 264 19 55 22 82 18 167 -3 90 -8 110 -36 168 -42 87 -124 169
-211 211 -60 29 -76 33 -176 35 -96 3 -118 0 -172 -21z m284 -88 c42 -15 75
-38 119 -82 75 -75 104 -143 104 -246 0 -103 -29 -171 -104 -246 -75 -75 -143
-104 -246 -104 -103 0 -171 29 -246 104 -75 75 -104 143 -104 246 0 103 29
171 104 246 76 76 139 103 243 103 51 1 90 -5 130 -21z"/>
<path d="M567 512 l-127 -127 -65 65 -65 65 -32 -33 -33 -32 98 -98 97 -97
160 160 161 161 -34 32 -33 32 -127 -128z"/>
</g>
</svg>
