<svg xmlns="http://www.w3.org/2000/svg" width="36" height="36" style=""><rect id="backgroundrect" width="100%" height="100%" x="0" y="0" fill="none" stroke="none" class="" style=""/><g class="currentLayer" style=""><title>Layer 1</title><path d="M17.047691062443054,5.2613474786189185 c7.492503070743515,0 13.588144850822479,6.095641780078965 13.588144850822479,13.588144850822479 s-6.095641780078965,13.588144850822479 -13.588144850822479,13.588144850822479 s-13.588144850822479,-6.095641780078965 -13.588144850822479,-13.588144850822479 s6.095641780078965,-13.588144850822479 13.588144850822479,-13.588144850822479 zm0,-2.7176289701644967 c-9.004863592640056,0 -16.305773820986975,7.300910228346918 -16.305773820986975,16.305773820986975 s7.300910228346918,16.305773820986975 16.305773820986975,16.305773820986975 s16.305773820986975,-7.300910228346918 16.305773820986975,-16.305773820986975 s-7.300910228346918,-16.305773820986975 -16.305773820986975,-16.305773820986975 zm8.152886910493487,23.09984624639821 h-16.305773820986975 v-2.7176289701644967 h16.305773820986975 v2.7176289701644967 zm0,-5.435257940328992 h-16.305773820986975 v-2.7176289701644967 h16.305773820986975 v2.7176289701644967 zm0,-5.435257940328992 h-16.305773820986975 v-2.7176289701644967 h16.305773820986975 v2.7176289701644967 z" id="svg_1" class="selected" fill="#ffffff" fill-opacity="1"/></g></svg>