<svg id="svg" xmlns="http://www.w3.org/2000/svg" xmlns:xlink="http://www.w3.org/1999/xlink" width="400" height="400" viewBox="0, 0, 400,400"><g id="svgg"><path id="path0" d="M141.948 22.984 C -16.943 79.597,-28.951 297.237,122.850 369.140 C 163.728 388.503,236.272 388.503,277.150 369.140 C 418.665 302.109,420.632 102.126,280.457 32.848 C 243.213 14.440,178.801 9.854,141.948 22.984 M272.970 53.089 C 373.170 102.650,395.260 237.120,316.190 316.190 C 237.110 395.271,102.621 373.166,53.089 272.946 C -16.595 131.950,132.005 -16.634,272.970 53.089 M136.000 118.153 C 136.000 119.338,147.100 136.815,160.667 156.991 C 190.555 201.442,190.555 194.558,160.667 239.009 C 131.684 282.112,132.235 280.000,149.968 280.000 C 162.822 280.000,165.421 277.767,182.555 252.000 C 205.227 217.905,202.773 217.905,225.445 252.000 C 242.755 278.031,245.076 280.000,258.460 280.000 C 275.933 280.000,276.071 280.454,244.621 234.487 L 220.324 198.975 246.162 161.915 C 275.793 119.416,276.754 115.981,259.000 116.052 C 247.247 116.098,244.134 118.971,226.545 146.006 C 204.171 180.395,205.730 180.471,183.172 143.905 C 166.870 117.479,165.240 116.067,151.000 116.034 C 142.750 116.015,136.000 116.969,136.000 118.153 " stroke="none" fill="#000000" fill-rule="evenodd"></path></g></svg>