<svg id="Ebene_1" data-name="Ebene 1" xmlns="http://www.w3.org/2000/svg" viewBox="0 0 96.02 62.04"><defs><style>.cls-1{fill:#313130;}.cls-2{fill:#e41d1c;}</style></defs><title>not approved</title><path class="cls-1" d="M734,387l-20.83,0a22.21,22.21,0,0,1-3.46-.15,1.9,1.9,0,0,1,0-3.75,33.36,33.36,0,0,1,3.46-.14L734,383Z" transform="translate(-637.98 -352.98)"/><path class="cls-1" d="M669.25,353A31,31,0,1,1,638,383.87,31.08,31.08,0,0,1,669.25,353ZM696,384.15A27,27,0,1,0,668.84,411,27.05,27.05,0,0,0,696,384.15Z" transform="translate(-637.98 -352.98)"/><rect class="cls-2" x="666.92" y="365.11" width="4.17" height="37.78" rx="2.08" ry="2.08" transform="translate(-170.51 -713.56) rotate(45)"/><rect class="cls-2" x="666.91" y="365.11" width="4.17" height="37.78" rx="2.08" ry="2.08" transform="translate(-713.56 232.54) rotate(-45)"/></svg>