<?xml version="1.0" encoding="UTF-8"?>
<svg width="61px" height="81px" viewBox="0 0 61 81" version="1.1" xmlns="http://www.w3.org/2000/svg" xmlns:xlink="http://www.w3.org/1999/xlink">
    <!-- Generator: Sketch 56.3 (81716) - https://sketch.com -->
    <title>scb_lock</title>
    <desc>Created with Sketch.</desc>
    <g id="scb_lock" stroke="none" stroke-width="1" fill="none" fill-rule="evenodd">
        <path d="M49,28.6 L49,21.1 C49,10.5 40.2,2 29.6,2 C19,2 10.2,10.6 10.2,21.1 L10.2,30.1 C5.1,35.2 2,42.3 2,50.1 C2,65.8 14.7,78.5 30.4,78.5 C46.1,78.5 58.8,65.8 58.8,50.1 C58.9,41.5 55,33.8 49,28.6 Z M35.8,61.3 L24.3,61.3 L27.4,50.8 C25.1,49.8 23.5,47.5 23.5,44.8 C23.5,41.2 26.5,38.2 30.1,38.2 C33.7,38.2 36.7,41.2 36.7,44.8 C36.7,47.5 35.1,49.8 32.8,50.8 L35.8,61.3 Z M42.4,25.6 C39.9,23.4 35.8,21.7 30.5,21.7 C25.2,21.7 20.3,22.7 16.1,25.2 L16.1,24.2 C16.1,14.2 20.2,8.6 30.1,8.6 C40,8.6 42.5,15 42.5,25.1 L42.5,25.6 L42.4,25.6 Z" id="Shape-Copy" fill="#A9218E" fill-rule="nonzero"></path>
    </g>
</svg>