<svg id="White" xmlns="http://www.w3.org/2000/svg" viewBox="0 0 400 390.12"><defs><style>.cls-1{fill:#fff;fill-rule:evenodd;}</style></defs><title>GitHub-Mark</title><path class="cls-1" d="M833,5.94c-110.44,0-200,89.54-200,200A200,200,0,0,0,769.78,395.72c10,1.83,13.65-4.34,13.65-9.64,0-4.75-.17-17.33-.27-34-55.63,12.09-67.37-26.81-67.37-26.81C706.7,302.15,693.58,296,693.58,296c-18.15-12.41,1.38-12.16,1.38-12.16,20.07,1.41,30.63,20.61,30.63,20.61,17.84,30.56,46.81,21.74,58.21,16.62,1.82-12.93,7-21.74,12.7-26.74-44.42-5.05-91.1-22.21-91.1-98.85,0-21.83,7.79-39.68,20.58-53.66-2.05-5.06-8.92-25.4,2-52.93,0,0,16.8-5.38,55,20.5a189.62,189.62,0,0,1,100.14,0C921.26,83.51,938,88.89,938,88.89c10.91,27.53,4,47.87,2,52.93,12.81,14,20.55,31.83,20.55,53.66,0,76.84-46.76,93.74-91.31,98.69,7.18,6.18,13.58,18.38,13.58,37,0,26.74-.25,48.31-.25,54.87,0,5.35,3.6,11.57,13.75,9.61C975.75,369.19,1033,294.28,1033,206,1033,95.48,943.45,5.94,833,5.94Z" transform="translate(-633 -5.94)"/></svg>