<svg id="Ebene_1" data-name="Ebene 1" xmlns="http://www.w3.org/2000/svg" viewBox="0 0 42.03 42"><defs><style>.cls-1{fill:#fcf3a1;}.cls-2{fill:#fff;}</style></defs><title>scan</title><circle class="cls-1" cx="21.01" cy="21" r="12"/><circle class="cls-2" cx="21.02" cy="21" r="5.92"/><path d="M4,4v6a1,1,0,0,0,2,0V6h4a1,1,0,0,0,0-2H4ZM40,4a1,1,0,0,0,0,2h4v4a1,1,0,0,0,2,0V4ZM25,11A14,14,0,0,0,11.58,29H5a1,1,0,0,0,0,2H45a1,1,0,0,0,0-2H38.42A14,14,0,0,0,25,11Zm0,2A12,12,0,0,1,37,25a11.76,11.76,0,0,1-.7,4H29.46A5.93,5.93,0,0,0,31,25a6,6,0,0,0-.38-2.09,2.57,2.57,0,1,1-3.52-3.53A6.11,6.11,0,0,0,25,19a6,6,0,0,0-6,6,5.93,5.93,0,0,0,1.54,4H13.7a11.76,11.76,0,0,1-.7-4A12,12,0,0,1,25,13Zm9.38,20a1.06,1.06,0,0,0-.73.33,12,12,0,0,1-17.31,0,1,1,0,0,0-1.73.66,1,1,0,0,0,.29.72,14,14,0,0,0,20.2,0,1,1,0,0,0,0-1.42A1,1,0,0,0,34.38,33ZM5,39a1,1,0,0,0-1,1v6h6a1,1,0,0,0,0-2H6V40a1,1,0,0,0-1-1Zm40,0a1,1,0,0,0-1,1v4H40a1,1,0,0,0,0,2h6V40a1,1,0,0,0-1-1Z" transform="translate(-3.99 -4)"/></svg>