<svg id="White" xmlns="http://www.w3.org/2000/svg" viewBox="0 0 400 400"><defs><style>.cls-1{fill:#fff;}</style></defs><title>Slack_Mark_Monochrome_White</title><path class="cls-1" d="M-521,240.7a42.12,42.12,0,0,1-42,42,42.12,42.12,0,0,1-42-42,42.13,42.13,0,0,1,42-42h42Z" transform="translate(605 12.07)"/><path class="cls-1" d="M-499.79,240.7a42.13,42.13,0,0,1,42-42,42.13,42.13,0,0,1,42,42V345.91a42.12,42.12,0,0,1-42,42,42.12,42.12,0,0,1-42-42Z" transform="translate(605 12.07)"/><path class="cls-1" d="M-457.77,72a42.12,42.12,0,0,1-42-42,42.13,42.13,0,0,1,42-42,42.13,42.13,0,0,1,42,42V72Z" transform="translate(605 12.07)"/><path class="cls-1" d="M-457.77,93.15a42.12,42.12,0,0,1,42,42,42.12,42.12,0,0,1-42,42H-563a42.12,42.12,0,0,1-42-42,42.12,42.12,0,0,1,42-42Z" transform="translate(605 12.07)"/><path class="cls-1" d="M-289,135.17a42.12,42.12,0,0,1,42-42,42.12,42.12,0,0,1,42,42,42.12,42.12,0,0,1-42,42h-42Z" transform="translate(605 12.07)"/><path class="cls-1" d="M-310.21,135.17a42.12,42.12,0,0,1-42,42,42.12,42.12,0,0,1-42-42V30a42.13,42.13,0,0,1,42-42,42.13,42.13,0,0,1,42,42Z" transform="translate(605 12.07)"/><path class="cls-1" d="M-352.23,303.89a42.13,42.13,0,0,1,42,42,42.12,42.12,0,0,1-42,42,42.12,42.12,0,0,1-42-42v-42Z" transform="translate(605 12.07)"/><path class="cls-1" d="M-352.23,282.72a42.12,42.12,0,0,1-42-42,42.13,42.13,0,0,1,42-42H-247a42.13,42.13,0,0,1,42,42,42.12,42.12,0,0,1-42,42Z" transform="translate(605 12.07)"/></svg>