<svg id="White" xmlns="http://www.w3.org/2000/svg" viewBox="0 0 400 400"><defs><style>.cls-1{fill:#fff;}</style></defs><title>Twitter_Social_Icon_Circle_White</title><path class="cls-1" d="M400-271A199.94,199.94,0,0,1,200-71,199.94,199.94,0,0,1,0-271,199.94,199.94,0,0,1,200-471,199.94,199.94,0,0,1,400-271ZM163.4-165.5c88.7,0,137.2-73.5,137.2-137.2,0-2.1,0-4.2-.1-6.2a98.79,98.79,0,0,0,24.1-25,97.87,97.87,0,0,1-27.7,7.6A48.19,48.19,0,0,0,318.1-353a97.65,97.65,0,0,1-30.6,11.7,48,48,0,0,0-35.2-15.2,48.23,48.23,0,0,0-48.2,48.2,44.19,44.19,0,0,0,1.3,11A136.79,136.79,0,0,1,106-347.7a48.37,48.37,0,0,0-6.5,24.2A48,48,0,0,0,121-283.4a47.37,47.37,0,0,1-21.8-6v.6a48.27,48.27,0,0,0,38.7,47.3,48.07,48.07,0,0,1-12.7,1.7,46,46,0,0,1-9.1-.9,48.15,48.15,0,0,0,45,33.5,96.93,96.93,0,0,1-59.9,20.6,87.68,87.68,0,0,1-11.5-.7,134.35,134.35,0,0,0,73.7,21.8" transform="translate(0 471)"/></svg>