<svg id="Layer_1" data-name="Layer 1" xmlns="http://www.w3.org/2000/svg" viewBox="0 0 298.84 189.6"><defs><style>.cls-1{fill-rule:evenodd;}.cls-2{fill:#93d3eb;}</style></defs><title>cloud</title><path class="cls-1" d="M265.66-245.29a48.46,48.46,0,0,1,42.26,48,48.45,48.45,0,0,1-48.39,48.39H66A57,57,0,0,1,9.08-205.78a57,57,0,0,1,53.67-56.8,82.46,82.46,0,0,1,82.1-75.92A82.42,82.42,0,0,1,221-287.43,48.47,48.47,0,0,1,265.66-245.29Zm-6.13,83.34a35.37,35.37,0,0,0,35.33-35.34,35.38,35.38,0,0,0-35.34-35.34H233.28a6.52,6.52,0,0,1-6.53-6.52,6.53,6.53,0,0,1,6.53-6.53h19.11c-3.28-17.45-19.08-29.37-35.31-28.8a6.5,6.5,0,0,1-6.74-4.37,69.35,69.35,0,0,0-65.49-46.6,69.38,69.38,0,0,0-69.3,69.22v.19a6.53,6.53,0,0,1-6.92,6.51c-1-.06-1.86-.09-2.66-.09a43.89,43.89,0,0,0-43.84,43.84A43.89,43.89,0,0,0,66-161.95Z" transform="translate(-9.08 338.5)"/><path class="cls-2" d="M294.86-197.29a35.37,35.37,0,0,1-35.33,35.34H66a43.89,43.89,0,0,1-43.84-43.83A43.89,43.89,0,0,1,66-249.62c.8,0,1.67,0,2.66.09A6.53,6.53,0,0,0,75.55-256v-.19a69.38,69.38,0,0,1,69.3-69.22,69.35,69.35,0,0,1,65.49,46.6,6.5,6.5,0,0,0,6.74,4.37c16.23-.57,32,11.35,35.31,28.8H233.28a6.53,6.53,0,0,0-6.53,6.53,6.52,6.52,0,0,0,6.53,6.52h26.24A35.38,35.38,0,0,1,294.86-197.29Z" transform="translate(-9.08 338.5)"/></svg>