<svg id="svg" xmlns="http://www.w3.org/2000/svg" xmlns:xlink="http://www.w3.org/1999/xlink" viewBox="0 0 400.57 401.65"><defs><style>.cls-1{fill:#d41216;}.cls-2{fill:#f8ac2e;}.cls-3{fill:#f8be9f;}.cls-4{fill:#0d140e;}</style><symbol id="Neues_Symbol_2" data-name="Neues Symbol 2" viewBox="0 0 367.75 144.67"><path class="cls-3" d="M107.07,5.13c6.24,6.24,6.24,48.17,0,54.4-6.61,6.62-95.78,6.62-102.4,0-6.23-6.23-6.23-48.16,0-54.4,6.62-6.62,95.79-6.62,102.4,0"/><path class="cls-3" d="M363.07,5.13c6.24,6.24,6.24,48.17,0,54.4-6.84,6.85-223.55,6.85-230.4,0-2.64-2.64-4.8-14.88-4.8-27.2s2.16-24.56,4.8-27.2c6.85-6.84,223.56-6.84,230.4,0"/><path class="cls-3" d="M235.07,85.13c6.24,6.24,6.24,48.17,0,54.4-6.84,6.85-223.55,6.85-230.4,0-6.23-6.23-6.23-48.16,0-54.4,6.85-6.84,223.56-6.84,230.4,0"/><path class="cls-3" d="M363.07,85.13c6.24,6.24,6.24,48.17,0,54.4-6.62,6.62-95.78,6.62-102.4,0-2.64-2.64-4.8-14.88-4.8-27.2s2.16-24.56,4.8-27.2c6.62-6.62,95.78-6.62,102.4,0"/></symbol><symbol id="Neues_Symbol_1" data-name="Neues Symbol 1" viewBox="0 0 75.39 64.09"><path class="cls-2" d="M25.64,14.55c-7.79,29.2,20.45,49.24,42,29.78,8-7.23,10.22-1.61,4.89,12.29-4.44,11.55-68.74,9-71.72-2.83C-2.16,42.1,3.28,27.88,16.88,11.72s13.79-16,8.76,2.83"/><path class="cls-2" d="M51.4,28.06c-6.22,6.22-9.7,1-6.37-9.46,2.59-8.18,3.18-8.35,6.78-1.92,2.65,4.74,2.52,8.45-.41,11.38"/></symbol><symbol id="Neues_Symbol" data-name="Neues Symbol" viewBox="0 0 182.11 204.13"><path class="cls-1" d="M95.86,21c4.13,5.88,6.25,17.85,6.25,35.22,0,41.49,27.14,52.49,44.9,18.2,8.52-16.45,16.91-2.56,11,18.17-7.66,26.73-4.84,44.21,10.18,63.1,10.5,13.21,14,21.39,14,33v15.44l-17,0h-17l-.1-17.83c-.12-21.35-17.83-43.84-32.34-41.08-7.7,1.47-8.27.18-6.57-14.91,1.54-13.68,0-18.72-8.92-29.34-14.74-17.51-26.07-17.21-26.07.71,0,9.9-4.77,19.66-17.83,36.47-17.39,22.41-26.88,51.16-20.35,61.72,1.69,2.73-2.36,4.29-11.15,4.29-26.78,0-33.68-42.1-11.64-71,7.33-9.61,9.89-17.73,9.63-30.53l-.35-17.45,17.2,1.94c29.47,3.32,45.6-37.21,30.56-76.77L66.26,0,77.94,6c6.42,3.32,14.49,10.05,17.92,15"/></symbol></defs><title>firewall</title><path id="path0" class="cls-4" d="M152.28,8c0,4.13,2.79,14.19,6.2,22.34,3.67,8.79,5.71,23.25,5,35.49l-1.2,20.66-24-1.12c-33.52-1.55-37.65,1.92-29.25,24.59,6.51,17.57,6.47,18-3.15,31.08A81.74,81.74,0,0,0,95,218.72c1.82,4.74-5.26,5.72-41.44,5.72-28.6,0-45.28,1.65-48.43,4.8-6.77,6.78-6.77,159.62,0,166.4,6.92,6.91,383.49,6.91,390.4,0s6.78-159.62,0-166.4c-3.07-3.07-18.73-4.8-43.5-4.8h-38.7l-1.79-21.53c-1.39-16.76-4.74-25.26-15.12-38.36L283,147.71l4.71-25.56c5.74-31.17-.18-49.74-18.95-59.45-20.09-10.38-28.51-8.4-28.58,6.74,0,7.15-1.8,15.7-3.94,19-2.71,4.2-3.89-2-3.93-20.86-.06-24.53-1.19-28.14-13-41.6C198.32,2,152.28-10.34,152.28,8" transform="translate(0 0.82)"/><use id="Neues_Symbol_2-3" data-name="Neues Symbol 2" width="367.75" height="144.67" transform="translate(16.41 240.93)" xlink:href="#Neues_Symbol_2"/><use id="Neues_Symbol_1-3" data-name="Neues Symbol 1" width="75.39" height="64.09" transform="translate(162.59 162.32)" xlink:href="#Neues_Symbol_1"/><use id="Neues_Symbol-3" data-name="Neues Symbol" width="182.11" height="204.13" transform="translate(109.23 22.28)" xlink:href="#Neues_Symbol"/></svg>