<svg id="svg" version="1.1" xmlns="http://www.w3.org/2000/svg" xmlns:xlink="http://www.w3.org/1999/xlink" width="400" height="400" viewBox="0, 0, 400,400"><g id="svgg"><path id="path0" d="M152.000 7.512 C 152.000 11.643,154.789 21.697,158.197 29.855 C 161.870 38.645,163.907 53.101,163.197 65.343 L 162.000 86.000 138.000 84.886 C 104.477 83.331,100.348 86.801,108.748 109.468 C 115.260 127.037,115.212 127.514,105.594 140.550 C 88.898 163.181,84.773 192.512,94.662 218.284 C 96.481 223.023,89.401 224.000,53.228 224.000 C 24.628 224.000,7.947 225.653,4.800 228.800 C -1.979 235.579,-1.979 388.421,4.800 395.200 C 11.714 402.114,388.286 402.114,395.200 395.200 C 401.979 388.421,401.979 235.579,395.200 228.800 C 392.128 225.728,376.466 224.000,351.695 224.000 L 312.991 224.000 311.205 202.472 C 309.816 185.715,306.465 177.213,296.086 164.108 L 282.751 147.272 287.461 121.712 C 293.204 90.545,287.284 71.972,268.514 62.266 C 248.427 51.879,240.010 53.862,239.939 69.000 C 239.905 76.150,238.133 84.700,236.000 88.000 C 233.283 92.204,232.104 85.958,232.061 67.139 C 232.005 42.607,230.878 39.001,219.062 25.543 C 198.040 1.601,152.000 -10.779,152.000 7.512 M205.757 40.867 C 209.878 46.751,212.000 58.722,212.000 76.090 C 212.000 117.583,239.138 128.586,256.900 94.294 C 265.423 77.839,273.812 91.736,267.867 112.463 C 260.201 139.193,263.018 156.667,278.039 175.563 C 288.541 188.775,292.000 196.950,292.000 208.563 L 292.000 224.000 275.000 223.987 L 258.000 223.975 257.899 206.144 C 257.778 184.790,240.075 162.300,225.566 165.066 C 217.865 166.535,217.294 165.239,218.994 150.153 C 220.537 136.468,219.005 131.432,210.073 120.816 C 195.333 103.299,184.000 103.604,184.000 121.519 C 184.000 131.421,179.231 141.179,166.174 157.994 C 148.778 180.397,139.297 209.154,145.824 219.716 C 147.511 222.445,143.463 224.000,134.670 224.000 C 107.891 224.000,100.992 181.898,123.035 152.998 C 130.359 143.396,132.920 135.276,132.663 122.467 L 132.312 105.018 149.514 106.957 C 178.980 110.278,195.114 69.754,180.075 30.196 L 176.149 19.872 187.832 25.913 C 194.257 29.236,202.324 35.965,205.757 40.867 M190.724 175.603 C 182.931 204.800,211.177 224.844,232.685 205.380 C 240.672 198.152,242.906 203.773,237.572 217.673 C 233.137 229.229,168.828 226.693,165.854 214.844 C 162.920 203.152,168.363 188.936,181.962 172.775 C 195.515 156.668,195.757 156.746,190.724 175.603 M216.481 189.119 C 210.266 195.334,206.778 190.150,210.111 179.650 C 212.707 171.470,213.293 171.304,216.891 177.734 C 219.546 182.478,219.413 186.187,216.481 189.119 M123.200 244.800 C 129.432 251.032,129.432 292.968,123.200 299.200 C 116.581 305.819,27.419 305.819,20.800 299.200 C 14.568 292.968,14.568 251.032,20.800 244.800 C 27.419 238.181,116.581 238.181,123.200 244.800 M379.200 244.800 C 385.432 251.032,385.432 292.968,379.200 299.200 C 372.355 306.045,155.645 306.045,148.800 299.200 C 146.160 296.560,144.000 284.320,144.000 272.000 C 144.000 259.680,146.160 247.440,148.800 244.800 C 155.645 237.955,372.355 237.955,379.200 244.800 M251.200 324.800 C 257.432 331.032,257.432 372.968,251.200 379.200 C 244.355 386.045,27.645 386.045,20.800 379.200 C 14.568 372.968,14.568 331.032,20.800 324.800 C 27.645 317.955,244.355 317.955,251.200 324.800 M379.200 324.800 C 385.432 331.032,385.432 372.968,379.200 379.200 C 372.581 385.819,283.419 385.819,276.800 379.200 C 274.160 376.560,272.000 364.320,272.000 352.000 C 272.000 339.680,274.160 327.440,276.800 324.800 C 283.419 318.181,372.581 318.181,379.200 324.800 " stroke="none" fill="#000000" fill-rule="evenodd"></path></g></svg>