<svg id="svg" version="1.1" xmlns="http://www.w3.org/2000/svg" xmlns:xlink="http://www.w3.org/1999/xlink" width="400" height="400" viewBox="0, 0, 400,400"><g id="svgg"><path id="path0" d="M141.948 22.984 C -12.362 77.965,-29.579 290.165,114.220 364.722 C 145.065 380.714,141.929 383.580,167.537 315.989 C 190.636 255.020,190.935 253.471,180.246 250.078 C 127.105 233.212,143.595 148.000,200.000 148.000 C 256.405 148.000,272.895 233.212,219.754 250.078 C 209.067 253.470,209.355 254.957,232.550 315.956 C 258.298 383.671,255.022 380.669,285.780 364.722 C 419.564 295.357,416.432 100.050,280.457 32.848 C 243.213 14.440,178.801 9.854,141.948 22.984 M272.970 53.089 C 385.623 108.809,395.275 276.516,289.399 338.563 C 267.769 351.240,268.217 351.632,250.552 304.497 L 236.497 266.994 250.090 254.174 C 310.767 196.949,241.877 98.262,166.291 134.130 C 123.619 154.379,113.729 217.729,147.905 251.905 L 163.364 267.364 149.379 304.682 C 131.815 351.547,132.190 351.215,110.930 338.757 C 29.288 290.911,11.459 164.120,76.031 90.576 C 124.485 35.390,205.866 19.899,272.970 53.089 " stroke="none" fill="#000000" fill-rule="evenodd"></path></g></svg>