<svg id="svg" xmlns="http://www.w3.org/2000/svg" viewBox="0 0 368.64 358.76"><defs><style>.cls-1{fill:#8ec266;}</style></defs><title>Open Source</title><path d="M732,111.13c-154.31,55-171.53,267.18-27.73,341.74,30.84,16,27.71,18.86,53.32-48.73,23.09-61,23.39-62.52,12.7-65.92C717.12,321.36,733.61,236.15,790,236.15s72.89,85.21,19.75,102.07c-10.68,3.4-10.4,4.88,12.8,65.88,25.75,67.72,22.47,64.72,53.23,48.77C1009.58,383.5,1006.45,188.2,870.48,121c-37.25-18.4-101.66-23-138.51-9.86" transform="translate(-605.68 -103.62)"/><path class="cls-1" d="M865,142.24C977.64,198,987.29,365.66,881.42,427.71c-21.63,12.68-21.18,13.07-38.85-34.07l-14.05-37.5,13.59-12.82c60.68-57.22-8.21-155.91-83.8-120-42.67,20.25-52.56,83.6-18.39,117.77l15.46,15.46-14,37.32c-17.57,46.86-17.19,46.53-38.45,34.07-81.64-47.84-99.47-174.63-34.9-248.18C716.5,124.54,797.88,109.05,865,142.24" transform="translate(-605.68 -103.62)"/></svg>