<svg id="svg" version="1.1" xmlns="http://www.w3.org/2000/svg" xmlns:xlink="http://www.w3.org/1999/xlink" width="400" height="400" viewBox="0, 0, 400,400"><g id="svgg"><path id="path1" d="M191.400 12.678 C 169.247 14.158,154.716 16.895,136.000 23.113 C 72.640 44.162,23.092 97.284,6.271 162.200 C 4.745 168.089,3.697 172.738,3.386 175.000 C 3.234 176.100,2.871 178.080,2.580 179.400 C 2.288 180.720,1.838 183.690,1.579 186.000 C 1.320 188.310,0.859 190.807,0.554 191.549 C -0.267 193.547,-0.260 229.007,0.562 230.591 C 0.871 231.186,1.241 233.142,1.385 234.937 C 1.529 236.732,1.921 239.820,2.256 241.800 C 2.590 243.780,3.103 246.840,3.395 248.600 C 4.552 255.574,7.581 267.469,10.220 275.400 C 24.315 317.756,51.924 353.919,89.000 378.587 C 102.692 387.697,105.132 388.689,109.043 386.736 C 111.871 385.323,112.154 384.878,128.040 356.793 C 136.439 341.947,143.972 328.630,144.781 327.200 C 145.590 325.770,152.165 314.160,159.392 301.400 C 177.448 269.522,176.654 271.285,174.821 267.140 C 173.832 264.906,173.170 264.305,167.812 260.782 C 123.708 231.786,138.951 162.503,191.184 154.547 C 253.129 145.113,283.770 226.514,231.411 261.414 C 221.401 268.087,221.076 266.521,239.075 298.400 C 246.342 311.270,256.343 329.000,261.301 337.800 C 290.159 389.025,287.901 385.300,291.002 386.801 C 294.954 388.714,298.407 387.167,314.000 376.494 C 343.380 356.385,367.885 326.883,382.356 294.200 C 383.720 291.120,384.998 288.240,385.197 287.800 C 389.089 279.180,395.477 257.055,396.803 247.600 C 397.035 245.950,397.390 243.970,397.592 243.200 C 397.795 242.430,398.160 239.820,398.404 237.400 C 398.649 234.980,399.107 232.072,399.424 230.938 C 400.125 228.429,400.282 196.074,399.599 194.798 C 399.379 194.387,398.934 191.743,398.610 188.925 C 398.053 184.078,397.475 180.510,396.125 173.600 C 394.900 167.325,394.420 165.128,393.828 163.097 C 393.493 161.943,392.748 159.290,392.173 157.200 C 378.802 108.572,343.495 63.887,298.400 38.517 C 290.404 34.019,278.883 28.587,271.000 25.600 C 269.680 25.100,267.790 24.380,266.800 24.002 C 265.810 23.623,263.380 22.824,261.400 22.226 C 259.420 21.629,256.720 20.797,255.400 20.376 C 252.431 19.431,248.862 18.533,244.312 17.587 C 242.393 17.188,240.665 16.763,240.470 16.644 C 240.276 16.524,238.786 16.231,237.159 15.992 C 235.531 15.754,232.850 15.302,231.200 14.987 C 222.676 13.363,200.451 12.073,191.400 12.678 " stroke="none" fill="#4bac53" fill-rule="evenodd"></path><path id="path0" d="M0.033 96.300 C 0.066 196.239,0.114 199.021,1.577 186.000 C 1.837 183.690,2.288 180.720,2.580 179.400 C 2.871 178.080,3.234 176.100,3.386 175.000 C 5.175 162.013,13.819 136.789,21.623 121.782 C 47.645 71.744,89.203 37.391,144.200 20.456 C 169.322 12.721,206.924 10.357,231.200 14.987 C 232.850 15.302,235.531 15.754,237.159 15.992 C 238.786 16.231,240.276 16.524,240.470 16.644 C 240.665 16.763,242.393 17.188,244.312 17.587 C 248.862 18.533,252.431 19.431,255.400 20.376 C 256.720 20.797,259.420 21.629,261.400 22.226 C 263.380 22.824,265.810 23.623,266.800 24.002 C 267.790 24.380,269.680 25.100,271.000 25.600 C 278.883 28.587,290.404 34.019,298.400 38.517 C 343.495 63.887,378.802 108.572,392.173 157.200 C 392.748 159.290,393.493 161.943,393.828 163.097 C 394.420 165.128,394.900 167.325,396.125 173.600 C 397.475 180.513,398.053 184.079,398.611 188.937 C 398.936 191.762,399.375 194.372,399.588 194.737 C 399.839 195.166,399.980 160.889,399.988 97.700 L 400.000 0.000 200.000 0.000 L 0.000 0.000 0.033 96.300 M196.600 153.856 C 179.874 155.661,168.244 161.124,157.750 172.106 C 132.935 198.075,137.812 241.059,167.812 260.782 C 173.170 264.305,173.832 264.906,174.821 267.140 C 176.654 271.285,177.448 269.522,159.392 301.400 C 152.165 314.160,145.590 325.770,144.781 327.200 C 143.972 328.630,136.439 341.947,128.040 356.793 C 112.154 384.878,111.871 385.323,109.043 386.736 C 105.132 388.689,102.692 387.697,89.000 378.587 C 51.924 353.919,24.315 317.756,10.220 275.400 C 7.585 267.482,4.560 255.606,3.393 248.600 C 2.142 241.091,1.623 237.592,1.269 234.266 C 0.106 223.369,0.000 230.119,0.000 314.920 L 0.000 400.000 200.000 400.000 L 400.000 400.000 399.975 314.700 C 399.957 256.423,399.820 229.717,399.542 230.400 C 399.318 230.950,398.880 233.650,398.567 236.400 C 398.255 239.150,397.821 242.147,397.604 243.061 C 397.386 243.974,397.022 246.044,396.795 247.661 C 395.474 257.063,389.074 279.212,385.197 287.800 C 384.998 288.240,383.720 291.120,382.356 294.200 C 367.885 326.883,343.380 356.385,314.000 376.494 C 298.407 387.167,294.954 388.714,291.002 386.801 C 287.901 385.300,290.159 389.025,261.301 337.800 C 256.343 329.000,246.342 311.270,239.075 298.400 C 221.076 266.521,221.401 268.087,231.411 261.414 C 270.546 235.328,266.260 178.400,223.690 158.864 C 216.086 155.374,203.719 153.088,196.600 153.856 " stroke="none" fill="#fbfbfb" fill-rule="evenodd"></path><path id="path1" d="M191.400 12.678 C 169.247 14.158,154.716 16.895,136.000 23.113 C 72.640 44.162,23.092 97.284,6.271 162.200 C 4.745 168.089,3.697 172.738,3.386 175.000 C 3.234 176.100,2.871 178.080,2.580 179.400 C 2.288 180.720,1.838 183.690,1.579 186.000 C 1.320 188.310,0.859 190.807,0.554 191.549 C -0.267 193.547,-0.260 229.007,0.562 230.591 C 0.871 231.186,1.241 233.142,1.385 234.937 C 1.529 236.732,1.921 239.820,2.256 241.800 C 2.590 243.780,3.103 246.840,3.395 248.600 C 4.552 255.574,7.581 267.469,10.220 275.400 C 24.315 317.756,51.924 353.919,89.000 378.587 C 102.692 387.697,105.132 388.689,109.043 386.736 C 111.871 385.323,112.154 384.878,128.040 356.793 C 136.439 341.947,143.972 328.630,144.781 327.200 C 145.590 325.770,152.165 314.160,159.392 301.400 C 177.448 269.522,176.654 271.285,174.821 267.140 C 173.832 264.906,173.170 264.305,167.812 260.782 C 123.708 231.786,138.951 162.503,191.184 154.547 C 253.129 145.113,283.770 226.514,231.411 261.414 C 221.401 268.087,221.076 266.521,239.075 298.400 C 246.342 311.270,256.343 329.000,261.301 337.800 C 290.159 389.025,287.901 385.300,291.002 386.801 C 294.954 388.714,298.407 387.167,314.000 376.494 C 343.380 356.385,367.885 326.883,382.356 294.200 C 383.720 291.120,384.998 288.240,385.197 287.800 C 389.089 279.180,395.477 257.055,396.803 247.600 C 397.035 245.950,397.390 243.970,397.592 243.200 C 397.795 242.430,398.160 239.820,398.404 237.400 C 398.649 234.980,399.107 232.072,399.424 230.938 C 400.125 228.429,400.282 196.074,399.599 194.798 C 399.379 194.387,398.934 191.743,398.610 188.925 C 398.053 184.078,397.475 180.510,396.125 173.600 C 394.900 167.325,394.420 165.128,393.828 163.097 C 393.493 161.943,392.748 159.290,392.173 157.200 C 378.802 108.572,343.495 63.887,298.400 38.517 C 290.404 34.019,278.883 28.587,271.000 25.600 C 269.680 25.100,267.790 24.380,266.800 24.002 C 265.810 23.623,263.380 22.824,261.400 22.226 C 259.420 21.629,256.720 20.797,255.400 20.376 C 252.431 19.431,248.862 18.533,244.312 17.587 C 242.393 17.188,240.665 16.763,240.470 16.644 C 240.276 16.524,238.786 16.231,237.159 15.992 C 235.531 15.754,232.850 15.302,231.200 14.987 C 222.676 13.363,200.451 12.073,191.400 12.678 " stroke="none" fill="#4bac53" fill-rule="evenodd"></path></g></svg>