<?xml version="1.0" encoding="iso-8859-1"?>
<!-- Generator: Adobe Illustrator 19.0.0, SVG Export Plug-In . SVG Version: 6.00 Build 0)  -->
<svg xmlns="http://www.w3.org/2000/svg" xmlns:xlink="http://www.w3.org/1999/xlink" version="1.1" id="Capa_1" x="0px" y="0px" viewBox="0 0 512 512" style="enable-background:new 0 0 512 512;" xml:space="preserve">
<g>
	<g>
		<g>
			<path d="M469.326,64l-32.001,0.016c-5.889,0.003-10.661,4.78-10.658,10.672l0.01,21.333c0.003,5.891,4.78,10.664,10.669,10.661     l32.001-0.016v31.979c0,5.891,4.775,10.667,10.663,10.667h21.327c5.889,0,10.663-4.776,10.663-10.667v-31.979     C512,83.094,492.891,63.988,469.326,64z"/>
			<path d="M10.667,149.309H32c5.891,0,10.667-4.776,10.667-10.666v-31.978h32c5.891,0,10.667-4.776,10.667-10.666V74.666     C85.333,68.775,80.557,64,74.667,64h-32C19.103,64,0,83.101,0,106.665v31.978C0,144.533,4.776,149.309,10.667,149.309z"/>
			<path d="M501.337,362.646H480.01c-5.889,0-10.663,4.775-10.663,10.667v32.021h-31.99c-5.889,0-10.663,4.775-10.663,10.667v21.333     c0,5.891,4.775,10.667,10.663,10.667h31.99C492.903,448,512,428.897,512,405.333v-32.021     C512,367.421,507.225,362.646,501.337,362.646z"/>
			<path d="M74.656,405.335l-31.99-0.016v-31.999c0-5.892-4.776-10.666-10.667-10.666H10.667C4.776,362.655,0,367.429,0,373.321     v31.988c0,23.56,19.095,42.664,42.656,42.675L74.635,448c5.891,0.003,10.669-4.771,10.672-10.661l0.01-21.332     C85.32,410.115,80.547,405.338,74.656,405.335z"/>
			<path d="M501.333,213.333H10.667C4.771,213.333,0,218.104,0,224v21.333C0,251.229,4.771,256,10.667,256h47.568     c0,1.1-0.335,2.199,0.005,3.26C86.313,346.635,165.792,405.333,256,405.333s169.688-58.698,197.76-146.073     c0.34-1.061,0.005-2.16,0.005-3.26h47.568c5.896,0,10.667-4.771,10.667-10.667V224C512,218.104,507.229,213.333,501.333,213.333z      M256,362.667c-58.813,0-106.667-47.854-106.667-106.667h64c0,23.531,19.135,42.667,42.667,42.667s42.667-19.135,42.667-42.667     h64C362.667,314.813,314.813,362.667,256,362.667z"/>
			<path d="M111.573,192h53.917c3.188,0,6.198-1.417,8.229-3.875c20.354-24.656,50.344-38.792,82.281-38.792     s61.927,14.135,82.281,38.792c2.031,2.458,5.042,3.875,8.229,3.875h53.917c4.219,0,8.042-2.49,9.75-6.354     c1.708-3.854,0.979-8.365-1.854-11.479c-39.531-43.531-93.625-67.5-152.323-67.5s-112.792,23.969-152.323,67.5     c-2.833,3.115-3.563,7.625-1.854,11.479C103.531,189.51,107.354,192,111.573,192z"/>
		</g>
	</g>
</g>
<g>
</g>
<g>
</g>
<g>
</g>
<g>
</g>
<g>
</g>
<g>
</g>
<g>
</g>
<g>
</g>
<g>
</g>
<g>
</g>
<g>
</g>
<g>
</g>
<g>
</g>
<g>
</g>
<g>
</g>
</svg>
