<?xml version="1.0" encoding="UTF-8" standalone="yes"?>
<svg xmlns="http://www.w3.org/2000/svg" viewBox="0 0 50 50" width="50" height="50" fill="#000000">
  <path style="line-height:normal;text-indent:0;text-align:start;text-decoration-line:none;text-decoration-style:solid;text-decoration-color:#000000;text-transform:none;block-progression:tb;isolation:auto;mix-blend-mode:normal" d="M 4 4 L 4 10 A 1.0001 1.0001 0 1 0 6 10 L 6 6 L 10 6 A 1.0001 1.0001 0 1 0 10 4 L 4 4 z M 40 4 A 1.0001 1.0001 0 1 0 40 6 L 44 6 L 44 10 A 1.0001 1.0001 0 1 0 46 10 L 46 4 L 40 4 z M 25 11 C 17.27961 11 11 17.27961 11 25 C 11 26.387616 11.202888 27.732143 11.580078 29 L 5 29 A 1.0001 1.0001 0 1 0 5 31 L 45 31 A 1.0001 1.0001 0 1 0 45 29 L 38.419922 29 C 38.797247 27.731546 39 26.388308 39 25 C 39 17.27961 32.72039 11 25 11 z M 25 13 C 31.63961 13 37 18.36039 37 25 C 37 26.406467 36.747332 27.74779 36.304688 29 L 29.462891 29 C 30.415617 27.937915 31 26.539277 31 25 C 31 24.262 30.860187 23.55925 30.617188 22.90625 C 30.165187 23.64525 29.358688 24.142578 28.429688 24.142578 C 27.009688 24.142578 25.857422 22.992266 25.857422 21.572266 C 25.857422 20.643266 26.356703 19.835766 27.095703 19.384766 C 26.441703 19.140766 25.738 19 25 19 C 21.686 19 19 21.686 19 25 C 19 26.539277 19.584383 27.937915 20.537109 29 L 13.697266 29 C 13.254403 27.748456 13 26.406741 13 25 C 13 18.36039 18.36039 13 25 13 z M 34.375 32.978516 A 1.0001 1.0001 0 0 0 33.654297 33.3125 C 31.470228 35.587072 28.406765 37 25 37 C 21.591446 37 18.526918 35.585147 16.341797 33.308594 A 1.0001 1.0001 0 0 0 15.630859 32.990234 A 1.0001 1.0001 0 0 0 14.898438 34.693359 C 17.445315 37.346806 21.036554 39 25 39 C 28.961235 39 32.549772 37.348694 35.095703 34.697266 A 1.0001 1.0001 0 0 0 34.375 32.978516 z M 4.984375 38.986328 A 1.0001 1.0001 0 0 0 4 40 L 4 46 L 10 46 A 1.0001 1.0001 0 1 0 10 44 L 6 44 L 6 40 A 1.0001 1.0001 0 0 0 4.984375 38.986328 z M 44.984375 38.986328 A 1.0001 1.0001 0 0 0 44 40 L 44 44 L 40 44 A 1.0001 1.0001 0 1 0 40 46 L 46 46 L 46 40 A 1.0001 1.0001 0 0 0 44.984375 38.986328 z"/>
</svg>
