<svg id="Ebene_1" data-name="Ebene 1" xmlns="http://www.w3.org/2000/svg" viewBox="0 0 352.66 288.13"><defs><style>.cls-1{fill:#fff;}</style></defs><title>twitter logo white</title><path d="M673.31-130.87c-35.75-5.17-61.55-24.74-67.11-50.59a75.36,75.36,0,0,0,31.23-1.18c-36-10.88-55-34.59-57.56-72.41,10.51,5.38,20.79,8.66,33,9.05-15.91-11.51-26.05-25.95-30.17-44.18s-1.5-35.7,7.86-52.64c39.27,46.25,88.85,71.66,149.63,75.91-.38-2.78-.73-5.08-1-7.38-3.74-30.88,11.7-60.19,39-74,27.82-14.09,60.35-9.32,83.25,12.43,2.27,2.15,4.21,2.62,7,1.75,7-2.22,14.2-4,21-6.6s13.35-6.08,20.5-9.4c-5.45,16.45-15.62,28.84-29.46,39.15,3.15-.55,6.32-1,9.45-1.66,3.3-.67,6.58-1.43,9.83-2.32s6.45-1.92,9.64-3a55.61,55.61,0,0,1,10.08-2.89c-4.06,5.06-7.75,10.49-12.28,15.09-6.73,6.84-14.11,13-21.07,19.65a6.56,6.56,0,0,0-2.08,4.26c.89,51.44-14.7,97.45-46.36,137.75-30.53,38.85-70.47,62.93-119.11,72C674.84-64,632.45-68.22,591.91-87c-7.9-3.66-15.39-8.23-23.06-12.4-.49-.27-.9-.67-2.1-1.56C606.47-97.24,641.53-106.94,673.31-130.87Zm82.12-123.69c-62.68-.34-116.29-21.65-160.64-65.53-.33.38-.57.54-.64.75a12.6,12.6,0,0,0-.41,1.82c-3.78,25.93,4.81,46.74,26.32,61.76,10.33,7.22,21.21,13.63,31.86,20.39a7.44,7.44,0,0,0,1.59.54l-.75,1.21c-9.6,0-19.2.23-28.8-.06s-19.07-1.12-28.72-1.71c.15.54.34,1.49.67,2.38,4.69,12.59,12.8,22.41,23.88,29.94,10.61,7.21,22.87,8.93,35.05,11,10.2,1.77,20.4,3.6,30.6,5.4l.08.92c-19.94,5.52-38.79,14.57-59.88,17.56A60.51,60.51,0,0,0,646.38-150c10.64,5.8,22.18,7.21,34,7.15,8.57,0,17.14,0,26.76,0-27.91,23.76-55.68,45.17-91.9,51.8a4.63,4.63,0,0,0,1.88,1.13c31.25,10.3,63.12,12,95.44,6.66,39.66-6.62,74.16-23.81,101.94-52.88,40.4-42.26,59.66-92.86,57-151.54a6.12,6.12,0,0,1,2.11-4.22c3.2-2.68,6.71-5,10.09-7.43-10,1.18-19.27-.79-28.86-4.08l20.73-19.29A38.43,38.43,0,0,0,865-321.1c-3.82,1.18-6.2,0-8.92-2.92-15.28-16.36-34.2-23.29-56.26-19.08-35,6.68-55.79,39.74-47.65,74.6C753.27-263.93,754.32-259.35,755.43-254.56Z" transform="translate(-566.75 356.3)"/><path class="cls-1" d="M755.43-254.56c-1.11-4.79-2.16-9.37-3.23-13.94-8.14-34.86,12.69-67.92,47.65-74.6,22.06-4.21,41,2.72,56.26,19.08,2.72,2.91,5.1,4.1,8.92,2.92a38.43,38.43,0,0,1,10.58-1.62l-20.73,19.29c9.59,3.29,18.83,5.26,28.86,4.08-3.38,2.45-6.89,4.75-10.09,7.43a6.12,6.12,0,0,0-2.11,4.22c2.67,58.68-16.59,109.28-57,151.54-27.78,29.07-62.28,46.26-101.94,52.88-32.32,5.39-64.19,3.64-95.44-6.66a4.63,4.63,0,0,1-1.88-1.13c36.22-6.63,64-28,91.9-51.8-9.62,0-18.19,0-26.76,0-11.87.06-23.41-1.35-34-7.15a60.51,60.51,0,0,1-20.74-18.13c21.09-3,39.94-12,59.88-17.56l-.08-.92c-10.2-1.8-20.4-3.63-30.6-5.4-12.18-2.11-24.44-3.83-35.05-11-11.08-7.53-19.19-17.35-23.88-29.94-.33-.89-.52-1.84-.67-2.38,9.65.59,19.18,1.41,28.72,1.71s19.2.06,28.8.06l.75-1.21a7.44,7.44,0,0,1-1.59-.54c-10.65-6.76-21.53-13.17-31.86-20.39-21.51-15-30.1-35.83-26.32-61.76a12.6,12.6,0,0,1,.41-1.82c.07-.21.31-.37.64-.75C639.14-276.21,692.75-254.9,755.43-254.56Z" transform="translate(-566.75 356.3)"/></svg>